<?xml version="1.0" encoding="UTF-8"?>
<svg width="491px" height="491px" viewBox="0 0 491 491" version="1.1" xmlns="http://www.w3.org/2000/svg" xmlns:xlink="http://www.w3.org/1999/xlink">
    <title>safari-pinned-tab</title>
    <g id="Page-1" stroke="none" stroke-width="1" fill="none" fill-rule="evenodd">
        <g id="safari-pinned-tab" transform="translate(0.500000, 0.500000)" fill="#000000" fill-rule="nonzero">
            <g id="airdrop-copy" transform="translate(83.500000, 96.500000)">
                <path d="M165.235434,211.104356 C168.606624,211.107329 171.838657,212.45091 174.220964,214.839713 L174.220964,214.839713 L237.289216,278.001207 C238.894004,279.595242 239.796674,281.76511 239.796674,284.028715 C239.796674,286.292321 238.894004,288.462189 237.289216,290.056224 L237.289216,290.056224 L233.728912,293.452003 C232.198314,295.101305 230.043214,296.026284 227.795071,295.999431 L227.795071,295.999431 L95.0465727,295.999431 C92.7984291,296.026285 90.6433291,295.101305 89.1127315,293.452003 L89.1127315,293.452003 L85.5524269,290.056224 C82.3009652,286.697566 82.3009652,281.359865 85.5524269,278.001207 L85.5524269,278.001207 L148.790217,214.839713 C151.172525,212.45091 154.404557,211.107329 157.775748,211.104356 L157.775748,211.104356 Z M24.3232556,76.3909516 C62.4614971,14.9198694 136.736584,-13.6962869 206.182538,6.32751916 C275.626211,26.3506675 323.333759,90.1356695 322.998242,162.48096 C322.983038,202.442487 308.198361,240.984338 281.491989,270.675691 L281.491989,270.675691 L281.306806,270.870741 C276.243128,275.924388 268.049254,275.924388 262.979467,270.864633 L262.979467,270.864633 L257.3453,265.222137 L257.154473,265.020082 C252.75208,260.090779 252.75208,252.637513 257.157716,247.704583 C303.141342,196.318196 300.277637,117.701631 250.677903,69.8076031 C201.081566,21.9168553 122.539302,21.9168553 72.9429641,69.8076031 C23.3432298,117.701631 20.4795247,196.318196 66.4663937,247.70821 C70.8687873,252.637513 70.8687873,260.090779 66.4663937,265.020082 L66.4663937,265.020082 L66.2755667,265.222137 L60.635291,270.870741 C55.5716135,275.924388 47.3777391,275.924388 42.3140616,270.870741 L42.3140616,270.870741 L42.1487778,270.697683 C-6.53320919,217.216802 -13.813203,137.85916 24.3232556,76.3909516 Z M161.528725,55.3810468 C202.474355,55.6789494 239.523666,79.7514286 256.48141,117.074878 C273.438677,154.397276 267.222045,198.183192 240.548632,229.293096 L240.548632,229.293096 L240.453497,229.397891 C238.634618,231.290757 236.184829,232.449507 233.568814,232.654404 L233.568814,232.654404 L233.403161,232.662568 C230.674739,232.693809 228.042783,231.653145 226.034576,229.725874 L226.034576,229.725874 L220.836357,224.517468 C217.341301,220.743341 217.341301,214.910451 220.760473,211.222135 C247.543335,179.497961 244.918805,132.345917 214.781452,103.799591 C184.645785,75.2548612 137.49541,75.2548612 107.359743,103.799591 C77.2223896,132.345917 74.5978603,179.497961 101.304837,211.136324 C104.799894,214.910451 104.799894,220.743341 101.239715,224.585188 L101.239715,224.585188 L96.0682697,229.763462 C94.098412,231.653145 91.4664554,232.693809 88.7380338,232.662568 L88.7380338,232.662568 L88.5723809,232.654404 C85.9563657,232.449507 83.5065767,231.290757 81.6876982,229.397891 L81.6876982,229.397891 L81.5925084,229.293032 C54.814591,198.059118 48.6650297,154.063123 65.8498152,116.666541 C83.0350888,79.2688961 120.405077,55.3280836 161.513798,55.3810468 L161.513798,55.3810468 Z M122.630605,117.886886 C144.343094,98.1077918 177.513589,98.1077918 199.226078,117.886886 C220.938567,137.66598 224.071752,170.736988 206.461057,194.25263 C205.282183,195.941112 203.392928,196.99225 201.338626,197.102631 C199.287814,197.272666 197.263947,196.545075 195.789327,195.10763 L195.789327,195.10763 L190.666896,189.977627 C188.255138,187.511571 187.955369,183.66886 189.955447,180.85762 C200.417072,166.067761 198.122934,145.768975 184.625197,133.694978 C171.127461,121.620982 150.729222,121.620982 137.231485,133.694978 C123.733749,145.768975 121.439611,166.067761 131.901235,180.85762 C133.901314,183.66886 133.601545,187.511571 131.189787,189.977627 L131.189787,189.977627 L126.067356,195.10763 C124.592736,196.545075 122.568869,197.272666 120.518057,197.102631 C118.463755,196.99225 116.5745,195.941112 115.395626,194.25263 C97.7849306,170.736988 100.918116,137.66598 122.630605,117.886886 Z M161.4975,145.945096 C169.355946,145.945096 175.726474,152.325042 175.726474,160.195106 C175.726474,168.065169 169.355946,174.445116 161.4975,174.445116 C153.639055,174.445116 147.268527,168.065169 147.268527,160.195106 C147.268527,156.415768 148.767646,152.791222 151.436097,150.118827 C154.104547,147.446432 157.723742,145.945096 161.4975,145.945096 Z" id="Path"></path>
            </g>
        </g>
    </g>
</svg>